<svg id="icon" height="512" viewBox="0 0 128 128" width="512" xmlns="http://www.w3.org/2000/svg"><path d="m85.112 79.16h6.876v18.781h-6.876z" fill="#707583" transform="matrix(-.707 .707 -.707 -.707 213.78 88.551)"/><path d="m92.76 98.622a1 1 0 0 1 -.707-.293l-13.28-13.28a1 1 0 0 1 0-1.414l4.862-4.862a1 1 0 0 1 1.414 0l13.28 13.28a1 1 0 0 1 0 1.414l-4.862 4.862a1 1 0 0 1 -.707.293zm-11.866-14.281 11.866 11.867 3.448-3.448-11.866-11.866z" fill="#2f3a5a"/><circle cx="50.169" cy="50.169" fill="#707583" r="49.169" transform="matrix(.707 -.707 .707 .707 -20.781 50.169)"/><path d="m50.169 100.338a50.169 50.169 0 0 1 -35.475-85.644 50.169 50.169 0 1 1 70.95 70.95 49.841 49.841 0 0 1 -35.475 14.694zm0-98.338a48.169 48.169 0 0 0 -34.061 82.23 48.168 48.168 0 0 0 68.121 0 48.169 48.169 0 0 0 -34.06-82.23z" fill="#2f3a5a"/><circle cx="50.169" cy="50.169" fill="#84879c" r="36.39" transform="matrix(.707 -.707 .707 .707 -20.781 50.169)"/><path d="m125.013 115.42-29.541-29.541a1.013 1.013 0 0 0 -1.433 0l-8.16 8.16a1.013 1.013 0 0 0 0 1.433l29.541 29.541a6.783 6.783 0 0 0 9.593-9.593z" fill="#e1b378"/><g opacity=".5"><path d="m124.653 125.348a6.95 6.95 0 0 1 -9.409-.514l-29.366-29.365a1.013 1.013 0 0 1 0-1.434l2.93-2.922 27.58 27.58a6.8 6.8 0 0 0 9.591 0 5.166 5.166 0 0 0 .622-.734 6.751 6.751 0 0 1 -1.948 7.389z" fill="#bd8d5a"/></g><path d="m120.217 128a7.761 7.761 0 0 1 -5.5-2.276l-29.545-29.545a2.016 2.016 0 0 1 0-2.847l8.161-8.16a2.061 2.061 0 0 1 2.848 0l29.541 29.541a7.793 7.793 0 0 1 0 11.007 7.761 7.761 0 0 1 -5.505 2.28zm-25.452-41.414-8.179 8.16 29.541 29.56a5.784 5.784 0 1 0 8.18-8.179z" fill="#2f3a5a"/><path d="m21.8 40.774a13.825 13.825 0 0 1 14.519-8.229c3.722.585 7.425 2.73 11.037 1.654 2.6-.774 4.424-3.039 6.648-4.588a13.327 13.327 0 0 1 20.539 14.2c-1.621 6.423-7.71 10.8-10.092 16.985-.936 2.429-1.269 5.067-2.308 7.453-2.231 5.128-7.688 8.49-13.269 8.845a20.85 20.85 0 0 1 -15.224-5.87c-4.509-4.214-6.093-9.192-8.37-14.656-1.058-2.539-3.05-4.391-3.832-7.121a13.443 13.443 0 0 1 .352-8.673z" fill="#d9e2e9"/><path d="m74.547 43.807c-1.621 6.421-7.715 10.8-10.1 16.98-.938 2.436-1.264 5.076-2.3 7.461-2.232 5.127-7.685 8.49-13.27 8.847a21.728 21.728 0 0 1 -16.848-7.563 20.468 20.468 0 0 0 13.949 4.768c5.585-.357 11.038-3.71 13.27-8.847 1.04-2.385 1.376-5.025 2.314-7.451 2.375-6.177 8.47-10.559 10.09-16.98a13.715 13.715 0 0 0 -2.452-11.443 13.694 13.694 0 0 1 5.347 14.228z" fill="#c1cdd3"/><path d="m47.772 78.125a21.974 21.974 0 0 1 -14.8-6.171c-4.07-3.8-5.85-8.2-7.733-12.855-.286-.707-.575-1.422-.877-2.146a17.923 17.923 0 0 0 -1.656-2.9 15.732 15.732 0 0 1 -2.214-4.329 14.424 14.424 0 0 1 .386-9.323 14.906 14.906 0 0 1 15.6-8.842 29.878 29.878 0 0 1 3.792.942c2.4.708 4.665 1.378 6.8.741a12.155 12.155 0 0 0 4.175-2.705c.7-.594 1.415-1.207 2.188-1.746a14.775 14.775 0 0 1 16.334-.029 14.58 14.58 0 0 1 5.746 15.292c-.93 3.684-3.229 6.7-5.453 9.626a31.822 31.822 0 0 0 -4.677 7.474 31.046 31.046 0 0 0 -1 3.334 27.931 27.931 0 0 1 -1.321 4.158c-2.291 5.254-7.962 9.054-14.125 9.443q-.581.036-1.165.036zm-13.346-44.725a12.913 12.913 0 0 0 -11.7 7.75 12.414 12.414 0 0 0 -.319 8.023 14.022 14.022 0 0 0 1.966 3.784 19.72 19.72 0 0 1 1.827 3.227c.3.73.6 1.452.885 2.165 1.877 4.637 3.5 8.642 7.245 12.145a19.7 19.7 0 0 0 14.477 5.6c5.431-.345 10.42-3.659 12.416-8.246a26.072 26.072 0 0 0 1.22-3.864 32.592 32.592 0 0 1 1.072-3.55 33.274 33.274 0 0 1 4.95-7.965c2.2-2.889 4.276-5.618 5.105-8.9a12.327 12.327 0 0 0 -19-13.132c-.692.482-1.344 1.038-2.034 1.625a13.826 13.826 0 0 1 -4.9 3.1c-2.707.808-5.368.021-7.941-.74a28.533 28.533 0 0 0 -3.536-.885 11.22 11.22 0 0 0 -1.733-.137z" fill="#2f3a5a"/><circle cx="42.231" cy="49.008" fill="#ffc943" r="7.222"/><g opacity=".25"><circle cx="40.67" cy="47.436" fill="#fff" r="2.733"/></g><path d="m49.454 49.006a7.223 7.223 0 0 1 -13.617 3.363 7.226 7.226 0 0 0 9.754-9.754 7.211 7.211 0 0 1 3.863 6.391z" fill="#f7b521"/><path d="m42.231 57.23a8.221 8.221 0 1 1 8.221-8.222 8.231 8.231 0 0 1 -8.221 8.222zm0-14.443a6.221 6.221 0 1 0 6.221 6.221 6.229 6.229 0 0 0 -6.221-6.221z" fill="#2f3a5a"/></svg>